<svg xmlns="http://www.w3.org/2000/svg" viewBox="0 0 1200 300" width="1200" height="300">
  <defs>
    <linearGradient id="bg" x1="0" y1="0" x2="1" y2="1">
      <stop offset="0%" stop-color="#1E1B4B"/>
      <stop offset="50%" stop-color="#312E81"/>
      <stop offset="100%" stop-color="#4F46E5"/>
    </linearGradient>
    <linearGradient id="accent" x1="0" y1="0" x2="1" y2="1">
      <stop offset="0%" stop-color="#818CF8"/>
      <stop offset="100%" stop-color="#A78BFA"/>
    </linearGradient>
    <linearGradient id="glow" x1="0.5" y1="0" x2="0.5" y2="1">
      <stop offset="0" stop-color="#818CF8" stop-opacity="0.3"/>
      <stop offset="1" stop-color="#818CF8" stop-opacity="0"/>
    </linearGradient>
  </defs>
  <rect width="1200" height="300" fill="url(#bg)" rx="24"/>
  <ellipse cx="600" cy="280" rx="500" ry="60" fill="url(#glow)"/>
  <g transform="translate(80, 80)">
    <rect x="0" y="0" width="64" height="64" rx="16" fill="url(#accent)"/>
    <text x="32" y="42" font-family="system-ui, sans-serif" font-weight="700" font-size="28" fill="white" text-anchor="middle">T</text>
  </g>
  <text x="164" y="117" font-family="system-ui, sans-serif" font-weight="700" font-size="42" fill="white" letter-spacing="-0.03">TASKIT</text>
  <text x="164" y="152" font-family="system-ui, sans-serif" font-weight="500" font-size="16" fill="#A5B4FC" letter-spacing="0.05">Meeting Intelligence Platform</text>
  <g transform="translate(164, 175)">
    <line x1="0" y1="0" x2="80" y2="0" stroke="#6366F1" stroke-width="3" stroke-linecap="round"/>
  </g>
  <g transform="translate(900, 96)">
    <text x="0" y="14" font-family="monospace" font-weight="400" font-size="14" fill="#A5B4FC">by Contrivention</text>
    <text x="0" y="36" font-family="monospace" font-weight="400" font-size="14" fill="#6366F1">Piranusa AI</text>
  </g>
  <g transform="translate(80, 220)">
    <rect x="0" y="0" width="240" height="44" rx="22" fill="rgba(255,255,255,0.08)"/>
    <text x="120" y="28" font-family="system-ui, sans-serif" font-weight="500" font-size="14" fill="#C7D2FE" text-anchor="middle">Audio to Action Items</text>
  </g>
  <g transform="translate(340, 220)">
    <rect x="0" y="0" width="200" height="44" rx="22" fill="rgba(255,255,255,0.08)"/>
    <text x="100" y="28" font-family="system-ui, sans-serif" font-weight="500" font-size="14" fill="#C7D2FE" text-anchor="middle">AI Transcript &amp; Summary</text>
  </g>
  <g transform="translate(560, 220)">
    <rect x="0" y="0" width="180" height="44" rx="22" fill="rgba(255,255,255,0.08)"/>
    <text x="90" y="28" font-family="system-ui, sans-serif" font-weight="500" font-size="14" fill="#C7D2FE" text-anchor="middle">Task Assignment</text>
  </g>
  <g transform="translate(760, 220)">
    <rect x="0" y="0" width="200" height="44" rx="22" fill="rgba(255,255,255,0.08)"/>
    <text x="100" y="28" font-family="system-ui, sans-serif" font-weight="500" font-size="14" fill="#C7D2FE" text-anchor="middle">Team Collaboration</text>
  </g>
</svg>
