<svg xmlns="http://www.w3.org/2000/svg" width="1254" height="1254" viewBox="0 0 1254 1254" version="1.1">
	<rect x="0" y="0" width="100%" height="100%" fill="#FFFFFF" />
	<path d="M 596 248.572 C 545.192 255.746, 498.772 277.868, 464.104 311.428 C 430.864 343.606, 409.555 383.400, 401.949 427.500 C 396.916 456.683, 399.921 493.148, 409.736 522 C 413.341 532.595, 419.232 545.956, 420.311 545.981 C 420.756 545.991, 420.778 542.737, 420.359 538.750 C 419.171 527.460, 419.479 495.574, 420.881 484.500 C 429.381 417.406, 467.278 364.637, 528.836 334.186 C 580.705 308.527, 641.207 305.183, 690.442 325.254 C 738.258 344.746, 775.559 383.868, 793.448 433.285 C 797.582 444.708, 802.458 464.344, 804.178 476.500 C 805.815 488.069, 805.777 521.727, 804.113 534 C 799.970 564.570, 790.297 595.407, 776.866 620.866 C 763.976 645.299, 755.399 657.602, 724.484 696 C 698.134 728.728, 691.217 737.966, 678.760 757.068 C 662.038 782.712, 650.659 804.594, 639.017 833.500 C 624.680 869.095, 617.906 879.034, 600.252 890.375 C 578.889 904.099, 551.727 906.561, 527.471 896.974 C 515.566 892.269, 508.010 887.216, 498.500 877.600 C 488.171 867.156, 482.676 858.233, 478.080 844.446 C 473.730 831.394, 472.349 818.505, 473.884 805.295 C 475.058 795.195, 480.460 774.879, 483.570 768.864 C 485.945 764.271, 483.795 765.514, 476.845 772.750 C 454.890 795.611, 444.958 826.292, 449.022 858.702 C 454.613 903.295, 485.140 940.340, 527.500 953.938 C 541.246 958.350, 548.131 959.351, 565 959.392 C 591.596 959.456, 612.382 953.250, 633.661 938.891 C 656.834 923.254, 671.317 902.320, 688.584 859.500 C 708.160 810.957, 728.191 780.138, 777.953 721.999 C 798.956 697.461, 806.015 688.476, 817.250 671.979 C 847.567 627.462, 864.835 581.622, 869.980 532 C 872.410 508.568, 870.542 469.417, 865.925 447 C 848.025 360.094, 789.424 290.165, 710.117 261.074 C 697.476 256.437, 680.433 251.941, 666 249.435 C 652.448 247.082, 610.233 246.562, 596 248.572 M 588.635 399.135 C 541.935 405.132, 502.292 437.253, 488.146 480.557 C 483.827 493.779, 482.702 502.624, 483.242 519.111 C 484.265 550.305, 492.606 567.881, 524.078 605.156 C 536.496 619.865, 541.784 627.458, 547.296 638.500 C 563.228 670.414, 561.349 700.380, 540.849 741.302 C 537.043 748.899, 533.256 757.744, 532.433 760.957 C 531.078 766.243, 531.091 767.188, 532.569 770.880 C 536.871 781.633, 554.176 782.955, 572.225 773.909 C 591.831 764.083, 608.543 745.813, 620.081 721.593 C 638.760 682.381, 636.964 639.258, 615.432 610 C 608.931 601.166, 602.348 594.913, 587.059 583.045 C 564.369 565.435, 555.509 555.912, 548.432 541.528 C 540.083 524.560, 540.165 506.994, 548.666 490.815 C 560.806 467.713, 590.639 452.062, 617.950 454.468 C 658.495 458.039, 689.448 483.668, 703.826 525.571 C 709.080 540.883, 710.478 550.996, 710.386 573 C 710.297 594.074, 708.284 609.095, 703.449 624.767 C 702.150 628.977, 701.267 632.600, 701.486 632.820 C 702.044 633.378, 708.136 623.683, 711.741 616.500 C 730.394 579.330, 735.063 531.394, 723.935 491.308 C 717.959 469.783, 702.987 444.536, 687.933 430.599 C 661.014 405.676, 625.449 394.407, 588.635 399.135" stroke="none" fill="#1E1B4B" fill-rule="evenodd"/>
</svg>